<svg width="18" height="20" viewBox="0 0 18 20" fill="none" xmlns="http://www.w3.org/2000/svg">
<path d="M9.7738 0.573182C9.31412 0.232682 8.68588 0.232681 8.2262 0.573182L0.526204 6.27689C0.195212 6.52206 0 6.9096 0 7.32151V18.7C0 19.418 0.58203 20 1.3 20H4.325C5.04297 20 5.625 19.418 5.625 18.7V13.5222C5.625 12.8043 6.20703 12.2222 6.925 12.2222H11.075C11.793 12.2222 12.375 12.8043 12.375 13.5222V18.7C12.375 19.418 12.957 20 13.675 20H16.7C17.418 20 18 19.418 18 18.7V7.32151C18 6.9096 17.8048 6.52207 17.4738 6.27689L9.7738 0.573182Z" fill="white"/>
</svg>
