<svg width="29" height="38" viewBox="0 0 29 38" fill="none" xmlns="http://www.w3.org/2000/svg">
<circle cx="14.5" cy="18.5" r="14.5" fill="#F9AE00"/>
<path d="M15.8594 3.625V8.26562H13.4375V3.625H15.8594ZM15.5625 29.1406V33.3281H13.1562V29.1406H15.5625ZM17.5938 24.0469C17.5938 23.4531 17.4792 22.9375 17.25 22.5C17.0312 22.0625 16.6615 21.6719 16.1406 21.3281C15.6302 20.9844 14.9427 20.6562 14.0781 20.3438C12.7344 19.8542 11.5573 19.3177 10.5469 18.7344C9.53646 18.1406 8.75 17.4062 8.1875 16.5312C7.63542 15.6562 7.35938 14.5521 7.35938 13.2188C7.35938 11.9375 7.65625 10.8281 8.25 9.89062C8.85417 8.94271 9.69271 8.21354 10.7656 7.70312C11.8385 7.18229 13.0833 6.92188 14.5 6.92188C15.6042 6.92188 16.5938 7.08854 17.4688 7.42188C18.3542 7.74479 19.1094 8.21875 19.7344 8.84375C20.3698 9.46875 20.8542 10.2396 21.1875 11.1562C21.5312 12.0625 21.7031 13.099 21.7031 14.2656H17.5781C17.5781 13.6198 17.5052 13.0469 17.3594 12.5469C17.2135 12.0469 17.0052 11.625 16.7344 11.2812C16.4635 10.9271 16.1354 10.6615 15.75 10.4844C15.375 10.3073 14.9479 10.2188 14.4688 10.2188C13.7812 10.2188 13.2135 10.349 12.7656 10.6094C12.3281 10.8698 12.0052 11.224 11.7969 11.6719C11.599 12.1198 11.5 12.6354 11.5 13.2188C11.5 13.7812 11.6042 14.276 11.8125 14.7031C12.0312 15.1198 12.3958 15.5 12.9062 15.8438C13.4271 16.1875 14.1406 16.5365 15.0469 16.8906C16.401 17.3906 17.5781 17.9427 18.5781 18.5469C19.5781 19.1406 20.3542 19.8698 20.9062 20.7344C21.4583 21.599 21.7344 22.6927 21.7344 24.0156C21.7344 25.3698 21.4219 26.5156 20.7969 27.4531C20.1823 28.3906 19.3177 29.1042 18.2031 29.5938C17.0885 30.0833 15.7917 30.3281 14.3125 30.3281C13.3646 30.3281 12.4271 30.2031 11.5 29.9531C10.5729 29.7031 9.72917 29.2969 8.96875 28.7344C8.21875 28.1615 7.61979 27.4062 7.17188 26.4688C6.72396 25.5208 6.5 24.3594 6.5 22.9844H10.6406C10.6406 23.776 10.7448 24.4323 10.9531 24.9531C11.1615 25.474 11.4427 25.8906 11.7969 26.2031C12.151 26.5052 12.5469 26.7188 12.9844 26.8438C13.4219 26.9688 13.8646 27.0312 14.3125 27.0312C15.0417 27.0312 15.6458 26.9062 16.125 26.6562C16.6146 26.4062 16.9792 26.0573 17.2188 25.6094C17.4688 25.151 17.5938 24.6302 17.5938 24.0469Z" fill="white"/>
</svg>
