<svg width="29" height="29" viewBox="0 0 29 29" fill="none" xmlns="http://www.w3.org/2000/svg">
<path d="M24.65 2.9H23.2V1.45C23.2 0.58 22.62 0 21.75 0C20.88 0 20.3 0.58 20.3 1.45V2.9L8.7 2.9V1.45C8.7 0.58 8.12 0 7.25 0C6.38 0 5.8 0.58 5.8 1.45V2.9H4.35C1.885 2.9 0 4.785 0 7.25L0 8.7L29 8.7V7.25C29 4.785 27.115 2.9 24.65 2.9ZM0 24.65C0 27.115 1.885 29 4.35 29H24.65C27.115 29 29 27.115 29 24.65V11.6L0 11.6L0 24.65ZM21.75 14.5C22.62 14.5 23.2 15.08 23.2 15.95C23.2 16.82 22.62 17.4 21.75 17.4C20.88 17.4 20.3 16.82 20.3 15.95C20.3 15.08 20.88 14.5 21.75 14.5ZM21.75 20.3C22.62 20.3 23.2 20.88 23.2 21.75C23.2 22.62 22.62 23.2 21.75 23.2C20.88 23.2 20.3 22.62 20.3 21.75C20.3 20.88 20.88 20.3 21.75 20.3ZM14.5 14.5C15.37 14.5 15.95 15.08 15.95 15.95C15.95 16.82 15.37 17.4 14.5 17.4C13.63 17.4 13.05 16.82 13.05 15.95C13.05 15.08 13.63 14.5 14.5 14.5ZM14.5 20.3C15.37 20.3 15.95 20.88 15.95 21.75C15.95 22.62 15.37 23.2 14.5 23.2C13.63 23.2 13.05 22.62 13.05 21.75C13.05 20.88 13.63 20.3 14.5 20.3ZM7.25 14.5C8.12 14.5 8.7 15.08 8.7 15.95C8.7 16.82 8.12 17.4 7.25 17.4C6.38 17.4 5.8 16.82 5.8 15.95C5.8 15.08 6.38 14.5 7.25 14.5ZM7.25 20.3C8.12 20.3 8.7 20.88 8.7 21.75C8.7 22.62 8.12 23.2 7.25 23.2C6.38 23.2 5.8 22.62 5.8 21.75C5.8 20.88 6.38 20.3 7.25 20.3Z" fill="#42B46C"/>
</svg>
